<?xml version="1.0" encoding="UTF-8" standalone="no"?>
<!DOCTYPE svg PUBLIC "-//W3C//DTD SVG 1.1//EN"
 "http://www.w3.org/Graphics/SVG/1.1/DTD/svg11.dtd">
<!-- Generated by graphviz version 2.36.0 (20140111.2315)
 -->
<!-- Title: uja Pages: 1 -->
<svg width="711pt" height="404pt"
 viewBox="0.00 0.00 711.00 404.00" xmlns="http://www.w3.org/2000/svg" xmlns:xlink="http://www.w3.org/1999/xlink">
<g id="graph0" class="graph" transform="scale(1 1) rotate(0) translate(4 400)">
<title>uja</title>
<polygon fill="white" stroke="none" points="-4,4 -4,-400 707,-400 707,4 -4,4"/>
<!-- &#45;74710271 -->
<g id="node1" class="node"><title>&#45;74710271</title>
<ellipse fill="none" stroke="black" cx="600" cy="-162" rx="102.061" ry="18"/>
<text text-anchor="middle" x="600" y="-158.3" font-family="Times,serif" font-size="14.00">www.example.com/c: 44</text>
</g>
<!-- &#45;1084037317 -->
<g id="node2" class="node"><title>&#45;1084037317</title>
<ellipse fill="none" stroke="black" cx="600" cy="-90" rx="102.536" ry="18"/>
<text text-anchor="middle" x="600" y="-86.3" font-family="Times,serif" font-size="14.00">www.example.com/d: 24</text>
</g>
<!-- &#45;74710271&#45;&gt;&#45;1084037317 -->
<g id="edge1" class="edge"><title>&#45;74710271&#45;&gt;&#45;1084037317</title>
<path fill="none" stroke="black" d="M600,-143.697C600,-135.983 600,-126.712 600,-118.112"/>
<polygon fill="black" stroke="black" points="603.5,-118.104 600,-108.104 596.5,-118.104 603.5,-118.104"/>
</g>
<!-- 1708695501 -->
<g id="node3" class="node"><title>1708695501</title>
<ellipse fill="none" stroke="black" cx="371" cy="-90" rx="108.31" ry="18"/>
<text text-anchor="middle" x="371" y="-86.3" font-family="Times,serif" font-size="14.00">www.example.com/a/c: 25</text>
</g>
<!-- 1126137467 -->
<g id="node4" class="node"><title>1126137467</title>
<ellipse fill="none" stroke="black" cx="371" cy="-18" rx="109.286" ry="18"/>
<text text-anchor="middle" x="371" y="-14.3" font-family="Times,serif" font-size="14.00">www.example.com/a/d: 12</text>
</g>
<!-- 1708695501&#45;&gt;1126137467 -->
<g id="edge2" class="edge"><title>1708695501&#45;&gt;1126137467</title>
<path fill="none" stroke="black" d="M371,-71.6966C371,-63.9827 371,-54.7125 371,-46.1124"/>
<polygon fill="black" stroke="black" points="374.5,-46.1043 371,-36.1043 367.5,-46.1044 374.5,-46.1043"/>
</g>
<!-- 1268611453 -->
<g id="node5" class="node"><title>1268611453</title>
<ellipse fill="none" stroke="black" cx="371" cy="-162" rx="109.286" ry="18"/>
<text text-anchor="middle" x="371" y="-158.3" font-family="Times,serif" font-size="14.00">www.example.com/a/b: 49</text>
</g>
<!-- 1268611453&#45;&gt;1708695501 -->
<g id="edge3" class="edge"><title>1268611453&#45;&gt;1708695501</title>
<path fill="none" stroke="black" d="M371,-143.697C371,-135.983 371,-126.712 371,-118.112"/>
<polygon fill="black" stroke="black" points="374.5,-118.104 371,-108.104 367.5,-118.104 374.5,-118.104"/>
</g>
<!-- &#45;1878290138 -->
<g id="node6" class="node"><title>&#45;1878290138</title>
<ellipse fill="none" stroke="black" cx="371" cy="-378" rx="104.461" ry="18"/>
<text text-anchor="middle" x="371" y="-374.3" font-family="Times,serif" font-size="14.00">www.example.com: 1000</text>
</g>
<!-- 334093782 -->
<g id="node7" class="node"><title>334093782</title>
<ellipse fill="none" stroke="black" cx="371" cy="-306" rx="106.386" ry="18"/>
<text text-anchor="middle" x="371" y="-302.3" font-family="Times,serif" font-size="14.00">www.example.com/a: 514</text>
</g>
<!-- &#45;1878290138&#45;&gt;334093782 -->
<g id="edge4" class="edge"><title>&#45;1878290138&#45;&gt;334093782</title>
<path fill="none" stroke="black" d="M371,-359.697C371,-351.983 371,-342.712 371,-334.112"/>
<polygon fill="black" stroke="black" points="374.5,-334.104 371,-324.104 367.5,-334.104 374.5,-334.104"/>
</g>
<!-- &#45;401702608 -->
<g id="node8" class="node"><title>&#45;401702608</title>
<ellipse fill="none" stroke="black" cx="131" cy="-234" rx="109.286" ry="18"/>
<text text-anchor="middle" x="131" y="-230.3" font-family="Times,serif" font-size="14.00">www.example.com/a/b: 99</text>
</g>
<!-- 334093782&#45;&gt;&#45;401702608 -->
<g id="edge8" class="edge"><title>334093782&#45;&gt;&#45;401702608</title>
<path fill="none" stroke="black" d="M320.102,-290.155C282.682,-279.241 231.663,-264.36 192.048,-252.806"/>
<polygon fill="black" stroke="black" points="192.818,-249.384 182.238,-249.944 190.858,-256.104 192.818,-249.384"/>
</g>
<!-- &#45;401702609 -->
<g id="node10" class="node"><title>&#45;401702609</title>
<ellipse fill="none" stroke="black" cx="371" cy="-234" rx="108.31" ry="18"/>
<text text-anchor="middle" x="371" y="-230.3" font-family="Times,serif" font-size="14.00">www.example.com/a/a: 89</text>
</g>
<!-- 334093782&#45;&gt;&#45;401702609 -->
<g id="edge6" class="edge"><title>334093782&#45;&gt;&#45;401702609</title>
<path fill="none" stroke="black" d="M371,-287.697C371,-279.983 371,-270.712 371,-262.112"/>
<polygon fill="black" stroke="black" points="374.5,-262.104 371,-252.104 367.5,-262.104 374.5,-262.104"/>
</g>
<!-- 616341086 -->
<g id="node11" class="node"><title>616341086</title>
<ellipse fill="none" stroke="black" cx="600" cy="-234" rx="102.536" ry="18"/>
<text text-anchor="middle" x="600" y="-230.3" font-family="Times,serif" font-size="14.00">www.example.com/b: 82</text>
</g>
<!-- 334093782&#45;&gt;616341086 -->
<g id="edge7" class="edge"><title>334093782&#45;&gt;616341086</title>
<path fill="none" stroke="black" d="M420.126,-289.983C455.715,-279.105 503.976,-264.352 541.549,-252.867"/>
<polygon fill="black" stroke="black" points="542.808,-256.142 551.349,-249.872 540.762,-249.448 542.808,-256.142"/>
</g>
<!-- 1402952114 -->
<g id="node9" class="node"><title>1402952114</title>
<ellipse fill="none" stroke="black" cx="125" cy="-162" rx="115.534" ry="18"/>
<text text-anchor="middle" x="125" y="-158.3" font-family="Times,serif" font-size="14.00">www.example.com/a/b/c: 51</text>
</g>
<!-- &#45;401702608&#45;&gt;1402952114 -->
<g id="edge5" class="edge"><title>&#45;401702608&#45;&gt;1402952114</title>
<path fill="none" stroke="black" d="M129.517,-215.697C128.856,-207.983 128.061,-198.712 127.324,-190.112"/>
<polygon fill="black" stroke="black" points="130.807,-189.769 126.466,-180.104 123.833,-190.367 130.807,-189.769"/>
</g>
<!-- 1927001777 -->
<g id="node12" class="node"><title>1927001777</title>
<ellipse fill="none" stroke="black" cx="122" cy="-90" rx="122.259" ry="18"/>
<text text-anchor="middle" x="122" y="-86.3" font-family="Times,serif" font-size="14.00">www.example.com/a/b/c/d: 26</text>
</g>
<!-- 1402952114&#45;&gt;1927001777 -->
<g id="edge11" class="edge"><title>1402952114&#45;&gt;1927001777</title>
<path fill="none" stroke="black" d="M124.258,-143.697C123.928,-135.983 123.531,-126.712 123.162,-118.112"/>
<polygon fill="black" stroke="black" points="126.658,-117.945 122.733,-108.104 119.665,-118.245 126.658,-117.945"/>
</g>
<!-- &#45;401702609&#45;&gt;1268611453 -->
<g id="edge9" class="edge"><title>&#45;401702609&#45;&gt;1268611453</title>
<path fill="none" stroke="black" d="M371,-215.697C371,-207.983 371,-198.712 371,-190.112"/>
<polygon fill="black" stroke="black" points="374.5,-190.104 371,-180.104 367.5,-190.104 374.5,-190.104"/>
</g>
<!-- 616341086&#45;&gt;&#45;74710271 -->
<g id="edge10" class="edge"><title>616341086&#45;&gt;&#45;74710271</title>
<path fill="none" stroke="black" d="M600,-215.697C600,-207.983 600,-198.712 600,-190.112"/>
<polygon fill="black" stroke="black" points="603.5,-190.104 600,-180.104 596.5,-190.104 603.5,-190.104"/>
</g>
</g>
</svg>
